<svg width="1200" height="900" viewBox="0 0 1200 900" fill="none" xmlns="http://www.w3.org/2000/svg">
  <rect width="1200" height="900" fill="#0E141B"/>
  <rect width="1200" height="900" fill="url(#bg)"/>
  <rect y="640" width="1200" height="260" fill="url(#street)"/>
  <path d="M84 700L184 462H262L234 700H84Z" fill="#121C27"/>
  <path d="M230 700L312 362H406L390 700H230Z" fill="#182332"/>
  <path d="M384 700L470 296H582L566 700H384Z" fill="#13202D"/>
  <path d="M546 700L610 224H744L742 700H546Z" fill="#182534"/>
  <path d="M726 700L800 332H920L940 700H726Z" fill="#121C27"/>
  <path d="M908 700L980 404H1088L1122 700H908Z" fill="#1A2737"/>
  <rect x="340" y="126" width="494" height="250" rx="24" fill="#243346" fill-opacity="0.34" stroke="#DCE7F4" stroke-opacity="0.18" stroke-width="2"/>
  <rect x="370" y="154" width="434" height="194" rx="18" fill="#0F1722"/>
  <path d="M438 254H736" stroke="#C9D7E8" stroke-opacity="0.24" stroke-width="2"/>
  <path d="M438 292H676" stroke="#C9D7E8" stroke-opacity="0.17" stroke-width="2"/>
  <path d="M438 330H620" stroke="#C9D7E8" stroke-opacity="0.14" stroke-width="2"/>
  <circle cx="887" cy="192" r="74" fill="#D3A068" fill-opacity="0.92"/>
  <circle cx="887" cy="192" r="122" fill="#D3A068" fill-opacity="0.18"/>
  <path d="M874 158L858 182H874L887 203L900 182H916L900 158H874Z" fill="#11161F"/>
  <path d="M600 468L640 554L600 700H520L500 554L540 468H600Z" fill="#06090D" fill-opacity="0.82"/>
  <path d="M468 710H660" stroke="#D8E1ED" stroke-opacity="0.12" stroke-width="3"/>
  <path d="M560 474C605 474 636 508 636 564V700H484V564C484 508 515 474 560 474Z" fill="#0D1218"/>
  <path d="M522 508L544 468H576L598 508L640 534L620 554L612 700H508L500 554L480 534L522 508Z" fill="#151D28"/>
  <path d="M548 468L560 438L572 468H548Z" fill="#1F2A39"/>
  <path d="M510 650C570 626 606 572 612 522" stroke="#55657A" stroke-opacity="0.38" stroke-width="2"/>
  <rect x="126" y="734" width="948" height="78" rx="18" fill="#0B1016" fill-opacity="0.42" stroke="#DCE7F4" stroke-opacity="0.12" stroke-width="2"/>
  <rect width="1200" height="900" fill="url(#vignette)"/>
  <defs>
    <linearGradient id="bg" x1="600" y1="0" x2="600" y2="900" gradientUnits="userSpaceOnUse">
      <stop stop-color="#24374E"/>
      <stop offset="0.48" stop-color="#101822"/>
      <stop offset="1" stop-color="#0A0F14"/>
    </linearGradient>
    <linearGradient id="street" x1="600" y1="640" x2="600" y2="900" gradientUnits="userSpaceOnUse">
      <stop stop-color="#10171F" stop-opacity="0"/>
      <stop offset="0.24" stop-color="#0E141B" stop-opacity="0.65"/>
      <stop offset="1" stop-color="#080C10"/>
    </linearGradient>
    <radialGradient id="vignette" cx="0" cy="0" r="1" gradientUnits="userSpaceOnUse" gradientTransform="translate(600 450) rotate(90) scale(520 760)">
      <stop offset="0.62" stop-color="#000000" stop-opacity="0"/>
      <stop offset="1" stop-color="#000000" stop-opacity="0.28"/>
    </radialGradient>
  </defs>
</svg>
