<svg width="1200" height="900" viewBox="0 0 1200 900" fill="none" xmlns="http://www.w3.org/2000/svg">
  <rect width="1200" height="900" fill="#18120F"/>
  <rect width="1200" height="900" fill="url(#bg)"/>
  <rect x="118" y="108" width="964" height="684" rx="34" fill="#F8F0E5" fill-opacity="0.06" stroke="#FFF6EC" stroke-opacity="0.14" stroke-width="2"/>
  <rect x="184" y="154" width="364" height="254" rx="18" fill="#FAF3EA"/>
  <rect x="184" y="438" width="168" height="252" rx="18" fill="#F8EADB"/>
  <rect x="380" y="438" width="168" height="252" rx="18" fill="#D88D5E" fill-opacity="0.86"/>
  <rect x="594" y="154" width="422" height="536" rx="22" fill="#FCF6EE"/>
  <path d="M230 208H504" stroke="#775F51" stroke-opacity="0.2" stroke-width="3"/>
  <path d="M230 252H468" stroke="#775F51" stroke-opacity="0.16" stroke-width="3"/>
  <path d="M230 296H512" stroke="#775F51" stroke-opacity="0.16" stroke-width="3"/>
  <path d="M226 488H312" stroke="#8A715F" stroke-opacity="0.24" stroke-width="3"/>
  <path d="M226 532H320" stroke="#8A715F" stroke-opacity="0.18" stroke-width="3"/>
  <path d="M226 576H302" stroke="#8A715F" stroke-opacity="0.18" stroke-width="3"/>
  <path d="M626 218H978" stroke="#775F51" stroke-opacity="0.2" stroke-width="3"/>
  <path d="M626 268H944" stroke="#775F51" stroke-opacity="0.16" stroke-width="3"/>
  <path d="M626 318H986" stroke="#775F51" stroke-opacity="0.16" stroke-width="3"/>
  <path d="M626 458H978" stroke="#775F51" stroke-opacity="0.18" stroke-width="3"/>
  <path d="M626 508H924" stroke="#775F51" stroke-opacity="0.15" stroke-width="3"/>
  <path d="M720 600C720 548.086 762.086 506 814 506C865.914 506 908 548.086 908 600V690H720V600Z" fill="#E5BE9D"/>
  <path d="M772 556C772 531.699 791.699 512 816 512C840.301 512 860 531.699 860 556V582C860 606.301 840.301 626 816 626C791.699 626 772 606.301 772 582V556Z" fill="#C98E67"/>
  <rect width="1200" height="900" fill="url(#wash)"/>
  <rect x="0" y="0" width="1200" height="900" fill="#000000" fill-opacity="0.03" filter="url(#grain)"/>
  <defs>
    <linearGradient id="bg" x1="122" y1="96" x2="1080" y2="808" gradientUnits="userSpaceOnUse">
      <stop stop-color="#39231C"/>
      <stop offset="0.54" stop-color="#18120F"/>
      <stop offset="1" stop-color="#6E4538"/>
    </linearGradient>
    <linearGradient id="wash" x1="96" y1="112" x2="1098" y2="800" gradientUnits="userSpaceOnUse">
      <stop stop-color="#F4E8D9" stop-opacity="0.04"/>
      <stop offset="1" stop-color="#000000" stop-opacity="0.08"/>
    </linearGradient>
    <filter id="grain" x="-20%" y="-20%" width="140%" height="140%">
      <feTurbulence type="fractalNoise" baseFrequency="0.72" numOctaves="2" stitchTiles="stitch"/>
      <feColorMatrix type="saturate" values="0"/>
      <feComponentTransfer>
        <feFuncA type="table" tableValues="0 0.15"/>
      </feComponentTransfer>
    </filter>
  </defs>
</svg>
