<svg width="1200" height="900" viewBox="0 0 1200 900" fill="none" xmlns="http://www.w3.org/2000/svg">
  <rect width="1200" height="900" fill="#211611"/>
  <rect width="1200" height="900" fill="url(#bg)"/>
  <rect x="128" y="126" width="944" height="648" rx="34" fill="#F8F1E7" fill-opacity="0.08" stroke="#FFF7ED" stroke-opacity="0.14" stroke-width="2"/>
  <rect x="190" y="170" width="378" height="560" rx="22" fill="#F6EBDD"/>
  <rect x="632" y="170" width="378" height="560" rx="22" fill="#F7EEE3" fill-opacity="0.98"/>
  <rect x="216" y="198" width="326" height="238" rx="16" fill="#D7BEA5"/>
  <rect x="216" y="464" width="326" height="238" rx="16" fill="#F7EEE3"/>
  <path d="M692 250C692 210.235 724.235 178 764 178H860C899.765 178 932 210.235 932 250V376C932 415.765 899.765 448 860 448H764C724.235 448 692 415.765 692 376V250Z" fill="#C98A68" fill-opacity="0.34"/>
  <path d="M738 366C738 315.19 779.19 274 830 274C880.81 274 922 315.19 922 366V730H738V366Z" fill="#FAF3EB"/>
  <path d="M780 320C780 293.49 801.49 272 828 272H830C856.51 272 878 293.49 878 320V356C878 382.51 856.51 404 830 404H828C801.49 404 780 382.51 780 356V320Z" fill="#E2BA9A"/>
  <path d="M720 516H980" stroke="#8B6957" stroke-opacity="0.25" stroke-width="3"/>
  <path d="M720 566H944" stroke="#8B6957" stroke-opacity="0.18" stroke-width="3"/>
  <path d="M720 616H970" stroke="#8B6957" stroke-opacity="0.18" stroke-width="3"/>
  <path d="M720 666H914" stroke="#8B6957" stroke-opacity="0.18" stroke-width="3"/>
  <path d="M246 230H512" stroke="#6E5547" stroke-opacity="0.24" stroke-width="3"/>
  <path d="M246 272H464" stroke="#6E5547" stroke-opacity="0.18" stroke-width="3"/>
  <path d="M246 314H502" stroke="#6E5547" stroke-opacity="0.18" stroke-width="3"/>
  <path d="M246 518H512" stroke="#6E5547" stroke-opacity="0.22" stroke-width="3"/>
  <path d="M246 560H478" stroke="#6E5547" stroke-opacity="0.16" stroke-width="3"/>
  <path d="M246 602H494" stroke="#6E5547" stroke-opacity="0.16" stroke-width="3"/>
  <rect width="1200" height="900" fill="url(#wash)"/>
  <rect x="0" y="0" width="1200" height="900" fill="#000000" fill-opacity="0.03" filter="url(#grain)"/>
  <defs>
    <linearGradient id="bg" x1="148" y1="88" x2="1040" y2="802" gradientUnits="userSpaceOnUse">
      <stop stop-color="#583227"/>
      <stop offset="0.54" stop-color="#261812"/>
      <stop offset="1" stop-color="#7C5A48"/>
    </linearGradient>
    <linearGradient id="wash" x1="114" y1="102" x2="1014" y2="790" gradientUnits="userSpaceOnUse">
      <stop stop-color="#D8C6B4" stop-opacity="0.04"/>
      <stop offset="1" stop-color="#000000" stop-opacity="0.08"/>
    </linearGradient>
    <filter id="grain" x="-20%" y="-20%" width="140%" height="140%">
      <feTurbulence type="fractalNoise" baseFrequency="0.8" numOctaves="2" stitchTiles="stitch"/>
      <feColorMatrix type="saturate" values="0"/>
      <feComponentTransfer>
        <feFuncA type="table" tableValues="0 0.16"/>
      </feComponentTransfer>
    </filter>
  </defs>
</svg>
