<svg width="1200" height="900" viewBox="0 0 1200 900" fill="none" xmlns="http://www.w3.org/2000/svg">
  <rect width="1200" height="900" fill="#0B1220"/>
  <rect width="1200" height="900" fill="url(#bg)"/>
  <circle cx="924" cy="206" r="138" fill="#8CD8FF" fill-opacity="0.18"/>
  <circle cx="924" cy="206" r="92" fill="#B4F1FF" fill-opacity="0.1"/>
  <circle cx="278" cy="230" r="124" fill="#7E7BFF" fill-opacity="0.12"/>
  <circle cx="622" cy="388" r="96" fill="#2CE0FF" fill-opacity="0.1"/>
  <path d="M112 714L250 590L334 638L520 428L660 534L814 312L1088 714H112Z" fill="#0A1628"/>
  <path d="M112 714L250 590L334 638L520 428L660 534L814 312L1088 714" stroke="#9BD9FF" stroke-opacity="0.14" stroke-width="2"/>
  <rect x="140" y="162" width="250" height="136" rx="22" fill="#101E36" stroke="#A8D8FF" stroke-opacity="0.16" stroke-width="2"/>
  <rect x="420" y="162" width="242" height="136" rx="22" fill="#152949" stroke="#A8D8FF" stroke-opacity="0.16" stroke-width="2"/>
  <rect x="140" y="332" width="264" height="198" rx="24" fill="#0E1B31" stroke="#A8D8FF" stroke-opacity="0.14" stroke-width="2"/>
  <rect x="436" y="332" width="264" height="198" rx="24" fill="#C2794F" fill-opacity="0.18" stroke="#A8D8FF" stroke-opacity="0.14" stroke-width="2"/>
  <rect x="734" y="150" width="328" height="380" rx="28" fill="#0C1424" stroke="#A8D8FF" stroke-opacity="0.14" stroke-width="2"/>
  <path d="M806 238H990" stroke="#C4EAFF" stroke-opacity="0.22" stroke-width="3"/>
  <path d="M806 290H962" stroke="#C4EAFF" stroke-opacity="0.18" stroke-width="3"/>
  <path d="M806 342H1004" stroke="#C4EAFF" stroke-opacity="0.16" stroke-width="3"/>
  <circle cx="844" cy="650" r="86" fill="#66B9FF" fill-opacity="0.16"/>
  <path d="M768 692C768 643.399 807.399 604 856 604C904.601 604 944 643.399 944 692V714H768V692Z" fill="#11233F"/>
  <path d="M824 636C824 618.327 838.327 604 856 604C873.673 604 888 618.327 888 636V652H824V636Z" fill="#B8E7FF"/>
  <rect width="1200" height="900" fill="url(#neonWash)"/>
  <defs>
    <linearGradient id="bg" x1="142" y1="94" x2="1042" y2="804" gradientUnits="userSpaceOnUse">
      <stop stop-color="#183055"/>
      <stop offset="0.52" stop-color="#0B1220"/>
      <stop offset="1" stop-color="#1B3857"/>
    </linearGradient>
    <linearGradient id="neonWash" x1="202" y1="146" x2="1010" y2="768" gradientUnits="userSpaceOnUse">
      <stop stop-color="#7EE2FF" stop-opacity="0.06"/>
      <stop offset="0.48" stop-color="#9E86FF" stop-opacity="0.04"/>
      <stop offset="1" stop-color="#2FE7FF" stop-opacity="0.08"/>
    </linearGradient>
  </defs>
</svg>
